<svg width="256" height="256" viewBox="0 0 256 256" class="w-full h-full" fill="none" xmlns="http://www.w3.org/2000/svg">
<g clip-path="url(#clip0_2_39)">
<path d="M118.671 151.92H148.501L166.168 174.825L178.774 189.74L209.048 228.625H177.087L156.491 202.524L147.702 190.095L118.671 151.92ZM213.398 122.091C213.398 141.681 209.728 158.46 202.389 172.428C195.109 186.337 185.166 196.99 172.56 204.388C160.012 211.787 145.778 215.486 129.857 215.486C113.936 215.486 99.6726 211.787 87.0661 204.388C74.5187 196.931 64.5755 186.248 57.2365 172.339C49.9567 158.372 46.3168 141.622 46.3168 122.091C46.3168 102.5 49.9567 85.7509 57.2365 71.8423C64.5755 57.8745 74.5187 47.1915 87.0661 39.7933C99.6726 32.3951 113.936 28.696 129.857 28.696C145.778 28.696 160.012 32.3951 172.56 39.7933C185.166 47.1915 195.109 57.8745 202.389 71.8423C209.728 85.7509 213.398 102.5 213.398 122.091ZM180.283 122.091C180.283 108.301 178.123 96.6707 173.803 87.201C169.541 77.6721 163.623 70.4811 156.047 65.6278C148.471 60.7154 139.741 58.2592 129.857 58.2592C119.973 58.2592 111.243 60.7154 103.668 65.6278C96.0919 70.4811 90.1437 77.6721 85.8232 87.201C81.5618 96.6707 79.4311 108.301 79.4311 122.091C79.4311 135.881 81.5618 147.541 85.8232 157.07C90.1437 166.539 96.0919 173.73 103.668 178.643C111.243 183.496 119.973 185.923 129.857 185.923C139.741 185.923 148.471 183.496 156.047 178.643C163.623 173.73 169.541 166.539 173.803 157.07C178.123 147.541 180.283 135.881 180.283 122.091Z" fill="currentColor"/>
<g clip-path="url(#clip1_2_39)">
<path d="M117.645 201.061C101.474 204.304 83.6916 210.823 73.5154 220.352C63.3409 229.885 56.3778 246.535 52.9212 261.684C49.4593 246.538 42.4941 229.888 32.3179 220.359C22.1417 210.826 4.363 204.308 -11.8148 201.071C4.35639 197.828 22.1385 191.305 32.3146 181.779C42.4945 172.247 49.4522 155.597 52.9142 140.448C56.3708 155.594 63.336 172.24 73.5121 181.773C83.692 191.302 101.471 197.824 117.645 201.061Z" fill="black" stroke="white" stroke-width="10" stroke-miterlimit="10"/>
</g>
</g>
<defs>
<clipPath id="clip0_2_39">
<rect width="256" height="256" fill="white"/>
</clipPath>
<clipPath id="clip1_2_39">
<rect width="151" height="150" fill="white" transform="translate(-23 112)"/>
</clipPath>
</defs>
</svg>
